# xmcd CD database file
#
# Track frame offsets:
#	150
#	17190
#	33484
#	56478
#	72135
#	88141
#	111594
#	127551
#	148069
#	171077
#	185908
#	203752
#	224096
#	243527
#
# Disc length: 3475 seconds
#
# Revision: 1
# Processed by: cddbd v1.5.2PL0 Copyright (c) Steve Scherf et al.
# Submitted via: CDex 1.70beta2
#
DISCID=d70d910e
DTITLE=Bandari - Countryside
DYEAR=1990
DGENRE=New Age
TTITLE0=Imagine
TTITLE1=Homecoming
TTITLE2=Sunflower
TTITLE3=Espoir
TTITLE4=Cradle Song
TTITLE5=Serenade
TTITLE6=Winter
TTITLE7=Recuerdos De La Alhambra
TTITLE8=My Serenade
TTITLE9=Dreaming
TTITLE10=Nocturne
TTITLE11=Spring Song
TTITLE12=Up Where We Belong
TTITLE13=Windflowers
EXTD=YEAR: 1990
EXTT0=
EXTT1=
EXTT2=
EXTT3=
EXTT4=
EXTT5=
EXTT6=
EXTT7=
EXTT8=
EXTT9=
EXTT10=
EXTT11=
EXTT12=
EXTT13=
PLAYORDER=
